<?xml version="1.0" encoding="UTF-8" standalone="no"?>
<!-- Uploaded to: SVG Repo, www.svgrepo.com, Generator: SVG Repo Mixer Tools -->

<svg
   width="800px"
   height="800px"
   viewBox="0 0 16 16"
   version="1.1"
   id="svg1"
   sodipodi:docname="selection.svg"
   inkscape:version="1.4 (86a8ad7, 2024-10-11)"
   xmlns:inkscape="http://www.inkscape.org/namespaces/inkscape"
   xmlns:sodipodi="http://sodipodi.sourceforge.net/DTD/sodipodi-0.dtd"
   xmlns="http://www.w3.org/2000/svg"
   xmlns:svg="http://www.w3.org/2000/svg">
  <defs
     id="defs1" />
  <sodipodi:namedview
     id="namedview1"
     pagecolor="#ffffff"
     bordercolor="#000000"
     borderopacity="0.25"
     inkscape:showpageshadow="2"
     inkscape:pageopacity="0.0"
     inkscape:pagecheckerboard="0"
     inkscape:deskcolor="#d1d1d1"
     inkscape:zoom="0.71329397"
     inkscape:cx="270.57568"
     inkscape:cy="428.29466"
     inkscape:window-width="1920"
     inkscape:window-height="1009"
     inkscape:window-x="-8"
     inkscape:window-y="-8"
     inkscape:window-maximized="1"
     inkscape:current-layer="svg1" />
  <g
     id="g1"
     transform="matrix(0.88784428,0,0,0.88784428,0.95332363,0.89724577)">
    <path
       fill="#444444"
       d="M 5,2.6 10.75,9 H 8.29 l 0.63,1.41 1.8,4 -0.91,0.34 -1.88,-4.3 -0.5,-1.11 -1,0.71 L 5,11.07 Z M 4,0 V 13 L 7,10.86 9.26,16 12.06,15 9.83,10 H 13 Z"
       id="path1" />
    <path
       style="fill:#ffffff;stroke-width:1.19165;stroke-linecap:square;stroke-dashoffset:1.1932"
       d="m 490.09419,734.12823 c -0.67954,-1.27167 -22.05472,-49.94327 -47.5004,-108.1591 C 396.26003,519.9646 373.2364,468.10145 371.93278,466.79782 c -0.38275,-0.38274 -27.76081,18.58526 -60.84013,42.15111 l -60.14422,42.847 -0.35938,-105.321 c -0.19767,-57.92657 -0.19767,-152.31589 0,-209.75406 l 0.35938,-104.43303 142.0959,158.16753 142.09589,158.16752 -60.4325,0.36537 c -33.23788,0.20097 -60.43252,0.88758 -60.43252,1.52581 0,0.63824 4.6488,11.51415 10.33066,24.16869 5.68185,12.65455 32.44633,72.21658 59.47659,132.36009 27.03027,60.1435 49.35142,110.20446 49.60256,111.24657 0.31025,1.28737 -6.40508,4.50021 -20.94934,10.02285 -18.97837,7.20633 -21.54607,7.86591 -22.64148,5.81596 z"
       id="path2"
       transform="scale(0.02)" />
  </g>
</svg>
